<svg xmlns="http://www.w3.org/2000/svg" viewBox="0 0 512 512">
  <rect width="512" height="512" rx="80" fill="#0A1628"/>
  <g transform="translate(56, 130)">
    <!-- Car body -->
    <path d="M40 220 L40 170 L80 80 L320 80 L360 170 L360 220 Z" fill="#1E4D8C"/>
    <!-- Windshield and windows -->
    <path d="M90 80 L120 155 L280 155 L310 80 Z" fill="#93B8F0" opacity="0.7"/>
    <!-- Left window -->
    <path d="M90 80 L120 155 L190 155 L180 80 Z" fill="#AECEF5" opacity="0.6"/>
    <!-- Right window -->
    <path d="M220 80 L210 155 L280 155 L310 80 Z" fill="#AECEF5" opacity="0.6"/>
    <!-- Wheels -->
    <circle cx="100" cy="225" r="38" fill="#0D1E35" stroke="#4A6A9C" stroke-width="8"/>
    <circle cx="100" cy="225" r="18" fill="#6B87B0"/>
    <circle cx="300" cy="225" r="38" fill="#0D1E35" stroke="#4A6A9C" stroke-width="8"/>
    <circle cx="300" cy="225" r="18" fill="#6B87B0"/>
    <!-- Road line -->
    <rect x="0" y="265" width="400" height="12" rx="6" fill="#1E4D8C" opacity="0.5"/>
    <!-- Headlights -->
    <ellipse cx="45" cy="195" rx="18" ry="12" fill="#FCD34D" opacity="0.9"/>
    <ellipse cx="355" cy="195" rx="18" ry="12" fill="#FCD34D" opacity="0.9"/>
  </g>
  <!-- Text -->
  <text x="256" y="440" font-family="Arial, sans-serif" font-size="52" font-weight="bold" fill="#ffffff" text-anchor="middle" letter-spacing="4">LINCOLN</text>
  <text x="256" y="490" font-family="Arial, sans-serif" font-size="28" font-weight="normal" fill="#93B8F0" text-anchor="middle" letter-spacing="6">SHUTTLE</text>
</svg>
